# Blender v3.1.2 OBJ File: 'eglise.blend'
# www.blender.org
mtllib eglise.mtl
o FabConvert.com_auvres
v -0.992936 0.661324 -0.104256
v -0.992928 0.661324 -0.097160
v -0.992921 0.638260 -0.091837
v -0.992921 0.666647 -0.091837
v -0.992928 0.673743 -0.097160
v -0.992912 0.666647 -0.084741
v -0.992912 0.661324 -0.084740
v -0.228255 1.046764 -0.095445
v -0.228437 0.922571 -0.242923
v 0.343237 0.354835 0.072397
v -0.253055 0.149032 0.349032
v -0.253055 0.376127 0.349031
v 0.122621 -0.000001 -0.427647
v 0.187890 -0.000001 -0.400706
v -0.252948 0.376127 0.435577
v 0.553697 -0.000001 -0.032862
v 0.553619 0.354835 -0.096403
v 0.553540 0.354834 -0.159944
v 0.174222 0.230642 -0.264487
v 0.037290 0.443542 -0.565929
v -0.998235 0.666647 -0.084734
v 0.307546 0.567736 -0.096106
v 0.343029 0.567736 -0.096150
v 0.272687 0.000001 0.409579
v -0.998235 0.661324 -0.084734
v -0.095773 0.549993 -0.565764
v 0.037334 0.443543 -0.530445
v 0.343237 0.376125 0.072397
v 0.343557 0.000001 0.331428
v 0.343237 -0.000000 0.072398
v 0.214992 0.230642 -0.335505
v -0.998259 0.661324 -0.104250
v -0.252948 0.149032 0.435577
v -0.227630 0.376127 0.410197
v -0.094567 0.549996 0.410032
v -0.992921 0.673743 -0.091837
v -0.998243 0.666647 -0.091831
v 0.037460 -0.000001 -0.427542
v 0.190912 0.532254 0.277653
v 0.037663 0.922571 -0.264320
v 0.037663 0.425801 -0.264319
v 0.002179 0.887087 -0.264276
v -0.192563 0.922572 0.073058
v -1.044518 0.371793 -0.209755
v -1.044584 0.479045 -0.262981
v 0.038496 0.393868 0.409868
v -0.227674 0.393868 0.374713
v -0.094611 0.532254 0.374548
v 0.038452 0.376126 0.374384
v -1.009100 0.496769 -0.263025
v -1.006896 0.479045 -0.263028
v -1.009100 0.479045 -0.263025
v -0.998251 0.673743 -0.097153
v -0.998251 0.666647 -0.097153
v 0.307754 0.400964 0.072441
v -0.314220 0.149032 0.374456
v 0.037871 0.542898 -0.095773
v 0.307754 0.376125 0.072441
v -0.973200 0.479028 0.074025
v -0.973409 0.620518 -0.094523
v -0.314220 0.376127 0.374455
v -0.314176 0.376127 0.410304
v 0.122849 0.230642 -0.243133
v 0.122823 0.351679 -0.264424
v 0.307337 0.400963 -0.264652
v 0.174221 -0.000001 -0.264486
v 0.342820 -0.000001 -0.264695
v 0.037662 0.376125 -0.264319
v -1.008684 0.496770 0.074068
v -0.227819 0.198709 0.257618
v -0.992928 0.666647 -0.097160
v 0.343109 0.376125 -0.031429
v 0.190463 0.532253 -0.085203
v 0.343558 0.376126 0.331427
v -0.973421 0.629324 -0.105167
v -1.008905 0.638260 -0.105124
v -1.008879 0.638260 -0.083834
v 0.037333 -0.000002 -0.530444
v 0.037662 0.351679 -0.264319
v 0.037289 -0.001705 -0.565927
v -0.973200 0.496770 0.074025
v -0.973396 0.638260 -0.083878
v -0.973421 0.638260 -0.105168
v -0.192563 0.887089 0.073058
v -0.192589 0.922572 0.051990
v -0.192771 1.046764 -0.095489
v -0.192980 0.887088 -0.264035
v -0.192980 0.922571 -0.264035
v 0.037461 0.230642 -0.427542
v 0.122735 0.299054 -0.335391
v 0.002388 1.046763 -0.095730
v 0.002179 0.922571 -0.264276
v -0.973617 0.496769 -0.263069
v -1.008905 0.629324 -0.105124
v 0.002596 0.922572 0.072817
v -1.009329 -0.000001 -0.447538
v -0.228692 -0.000001 -0.448503
v -1.009324 0.198772 -0.443572
v -0.992921 0.661324 -0.091837
v -0.998243 0.661324 -0.091831
v -0.094611 0.549996 0.374548
v 0.038452 0.393868 0.374384
v 0.037662 -0.000001 -0.264318
v 0.037662 0.230642 -0.264318
v -0.228463 0.922571 -0.263991
v -0.192954 0.922571 -0.242967
v 0.002205 0.922571 -0.243208
v -0.228464 0.425802 -0.263990
v -0.228793 0.425801 -0.530116
v -0.387544 0.149032 0.257816
v -0.288903 0.376127 0.349075
v -0.288903 0.149032 0.349076
v 0.342821 0.354834 -0.264696
v 0.037334 0.425801 -0.530445
v -1.019665 0.465235 -0.197367
v -1.019680 0.000000 -0.209785
v -1.019395 0.000001 0.020858
v -0.973396 0.629324 -0.083878
v -1.008879 0.629324 -0.083834
v -0.228687 0.198772 -0.444537
v -0.228464 0.319351 -0.263990
v -0.228837 -0.000001 -0.565598
v -0.228793 0.443543 -0.530116
v 0.002388 1.029022 -0.095730
v -0.192771 1.029022 -0.095489
v 0.002596 0.887088 0.072817
v -0.228837 0.443543 -0.565600
v -0.095730 0.549993 -0.530281
v 0.038079 0.376126 0.072775
v 0.038047 0.376125 0.047012
v 0.038496 0.376126 0.409868
v 0.468612 0.354834 -0.245429
v 0.037871 1.046763 -0.095774
v 0.037689 0.922571 -0.243252
v 0.038080 0.922572 0.072773
v -0.094984 0.532253 0.072939
v -0.228047 0.479028 0.073103
v -0.228047 0.376126 0.073104
v -0.228047 0.922572 0.073102
v 0.188051 -0.000001 -0.270235
v 0.214992 -0.000001 -0.335504
v 0.272687 0.376126 0.409578
v 0.468980 -0.000000 0.052833
v 0.002570 0.922572 0.051749
v 0.038054 0.922572 0.051705
v -0.209889 0.149032 0.410176
v -0.227630 0.149032 0.410197
v -0.227630 0.393869 0.410197
v -0.992928 0.638260 -0.097160
v -0.998243 0.638260 -0.091830
v -0.998251 0.638260 -0.097153
v 0.343237 0.400964 0.072397
v 0.343029 0.521607 -0.096150
v 0.342821 0.400963 -0.264696
v -0.227675 0.149032 0.374349
v -0.227675 0.376127 0.374348
v 0.553540 -0.000001 -0.159943
v 0.468612 -0.000001 -0.245428
v -0.209801 0.000002 0.481143
v -0.209801 0.149032 0.481142
v -0.209889 0.000001 0.410176
v -0.228255 0.620518 -0.095444
v -0.228073 0.922572 0.052034
v -0.228464 0.479027 -0.263990
v -0.998259 0.666647 -0.104250
v -0.998251 0.661324 -0.097153
v -0.998243 0.673743 -0.091831
v 0.468796 0.502396 -0.096299
v -0.228047 0.319352 0.073104
v -0.227819 0.149032 0.257618
v 0.187890 0.230642 -0.400707
v 0.122621 0.230642 -0.427648
v -0.095400 0.532252 -0.264155
v -0.095730 0.532251 -0.530281
v -0.270925 0.482577 0.392326
v -1.008456 0.000001 0.258584
v -1.008456 0.198709 0.258583
v -1.008684 0.000001 0.074070
v -1.008684 0.319353 0.074069
v -0.389344 0.000001 0.260290
v -0.405010 0.149032 0.481384
v -0.405010 0.000002 0.481384
v 0.468981 0.354835 0.052832
v 0.553697 0.354835 -0.032863
v 0.307337 0.376124 -0.264652
v 0.307546 0.542897 -0.096106
v 0.188051 0.230642 -0.270236
v -0.314176 0.149032 0.410304
v -0.288796 0.149032 0.435622
v -1.080002 0.106433 -0.209711
v -1.062261 0.350503 -0.209734
v -0.288796 0.376127 0.435621
v -0.992936 0.666647 -0.104256
v -1.009121 0.479045 0.089789
v -1.009100 0.433051 0.073616
v -1.044518 0.479045 0.020347
v -1.019665 0.433051 0.007959
v -1.097744 -0.000017 -0.209689
v -1.097810 -0.000017 -0.262914
v -1.009035 -0.000017 -0.209798
v -1.019665 0.465235 0.007959
v -1.044518 0.433051 0.020347
v -1.019680 0.433051 0.020378
v -1.009035 0.479028 0.020391
v -1.080002 0.106433 0.020302
v -1.009035 -0.000017 0.020390
v -1.097744 0.085143 0.020280
v -0.973637 0.479045 0.089833
v -1.009121 0.440023 0.089789
v -1.009101 0.319352 -0.263024
v -1.009121 0.433051 0.089789
v -1.044584 0.479045 0.073573
v -1.062326 0.350503 0.073550
v -1.080068 0.246487 0.073528
v -1.097810 -0.000017 0.073505
v -1.097744 -0.000017 0.020280
v -1.062326 0.267777 0.073550
v -1.009035 0.479028 -0.209800
v -1.080068 0.106433 0.073528
v -1.019680 0.465235 -0.209786
v -1.019395 0.465235 0.020856
v -1.062260 0.350503 0.020325
v -1.062260 0.267777 0.020325
v -1.097810 0.085143 0.073506
v -1.080002 0.246487 0.020303
v -1.044584 0.371793 0.073572
v -1.009098 0.479045 -0.260821
v -1.044584 0.433051 0.073572
v -1.009100 0.433051 -0.263025
v -1.044518 0.371793 0.020347
v -1.080068 0.246487 -0.262937
v -1.062261 0.267777 -0.209733
v -1.062326 0.267777 -0.262958
v -1.097810 0.085143 -0.262914
v -1.009101 0.000000 -0.263023
v -1.080068 0.106433 -0.262936
v -1.062326 0.350503 -0.262959
v -1.044584 0.371793 -0.262981
v -1.044584 0.433051 -0.262981
v -1.009121 0.440023 -0.279198
v -1.009121 0.479045 -0.279198
v -0.973637 0.440023 -0.279242
v -0.973637 0.479045 -0.279242
v -1.097744 0.085143 -0.209689
v -1.019680 0.433051 -0.209786
v -1.080002 0.246487 -0.209711
v -1.019665 0.433051 -0.197367
v -1.044518 0.433051 -0.209756
v -1.044518 0.479045 -0.209756
v -1.009121 0.433051 -0.279198
v -1.009013 0.479045 -0.192058
v -0.973617 0.479045 -0.263069
v -0.973617 0.447413 -0.263069
v -1.009100 0.479045 0.073616
v -1.009097 0.479045 0.071412
v -1.009013 0.479045 0.002650
v -1.006896 0.479045 0.073619
v -0.973617 0.447413 0.073660
v -0.973637 0.440023 0.089833
v -1.080002 0.106433 0.020302
v -1.097744 0.085143 0.020280
v -0.094611 0.532254 0.374548
v -0.094611 0.532254 0.374548
v 0.038452 0.376126 0.374384
v 0.038452 0.376126 0.374384
v 0.038452 0.376126 0.374384
v -0.192589 0.922572 0.051990
v -0.192771 1.046764 -0.095489
v -0.192771 1.046764 -0.095489
v -1.009329 -0.000001 -0.447538
v -1.009324 0.198772 -0.443572
v -1.009324 0.198772 -0.443572
v -0.094611 0.549996 0.374548
v -0.094611 0.549996 0.374548
v 0.038452 0.393868 0.374384
v -0.387544 0.149032 0.257816
v -0.387544 0.149032 0.257816
v -0.389344 0.000001 0.260290
v -1.062260 0.267777 0.020325
v -1.080002 0.246487 0.020303
v -0.405010 0.149032 0.481384
v -0.405010 0.149032 0.481384
v -0.405010 0.000002 0.481384
v -0.973396 0.638260 -0.083878
v -0.973396 0.638260 -0.083878
v -0.973421 0.638260 -0.105168
v -0.973421 0.638260 -0.105168
v 0.002388 1.029022 -0.095730
v 0.002388 1.029022 -0.095730
v 0.002596 0.887088 0.072817
v 0.002596 0.887088 0.072817
v 0.037871 1.046763 -0.095774
v 0.037871 1.046763 -0.095774
v 0.037689 0.922571 -0.243252
v -0.192771 1.029022 -0.095489
v -0.192771 1.029022 -0.095489
v -0.228255 1.046764 -0.095445
v -0.228255 1.046764 -0.095445
v -0.228437 0.922571 -0.242923
v -0.973396 0.629324 -0.083878
v -0.973396 0.629324 -0.083878
v -1.008879 0.629324 -0.083834
v -1.008879 0.629324 -0.083834
v -0.228464 0.425802 -0.263990
v -0.228464 0.425802 -0.263990
v -0.228793 0.425801 -0.530116
v -0.228793 0.425801 -0.530116
v -0.998251 0.673743 -0.097153
v -0.998251 0.673743 -0.097153
v -0.998251 0.673743 -0.097153
v -0.998251 0.666647 -0.097153
v -0.998251 0.666647 -0.097153
v -0.998251 0.666647 -0.097153
v -0.998251 0.666647 -0.097153
v -0.973200 0.479028 0.074025
v -0.973200 0.479028 0.074025
v -0.973200 0.479028 0.074025
v -0.973200 0.479028 0.074025
v -0.973409 0.620518 -0.094523
v -0.973409 0.620518 -0.094523
v -0.228255 0.620518 -0.095444
v -0.228255 0.620518 -0.095444
v -0.228464 0.479027 -0.263990
v -0.228464 0.479027 -0.263990
v -0.228464 0.479027 -0.263990
v -1.008684 0.319353 0.074069
v -1.008684 0.319353 0.074069
v -1.008684 0.319353 0.074069
v -1.008456 0.198709 0.258583
v -1.008456 0.198709 0.258583
v -1.008684 0.000001 0.074070
v 0.307337 0.376124 -0.264652
v 0.307546 0.542897 -0.096106
v 0.307546 0.542897 -0.096106
v -0.992928 0.638260 -0.097160
v -0.992928 0.638260 -0.097160
v -0.992928 0.638260 -0.097160
v -0.992928 0.638260 -0.097160
v -0.998251 0.638260 -0.097153
v -0.998251 0.638260 -0.097153
v -0.998251 0.638260 -0.097153
v -0.998251 0.638260 -0.097153
v -0.998251 0.638260 -0.097153
v -0.992921 0.666647 -0.091837
v -0.992921 0.666647 -0.091837
v -0.992912 0.666647 -0.084741
v -0.992912 0.666647 -0.084741
v -1.044584 0.371793 0.073572
v -1.044584 0.433051 0.073572
v -1.044584 0.433051 0.073572
v -1.044584 0.433051 0.073572
v -0.228047 0.479028 0.073103
v -0.228047 0.479028 0.073103
v -0.228047 0.479028 0.073103
v -0.228047 0.922572 0.073102
v -0.228047 0.922572 0.073102
v -0.998243 0.638260 -0.091830
v -0.998243 0.638260 -0.091830
v -0.998243 0.638260 -0.091830
v -0.992921 0.661324 -0.091837
v -0.992921 0.661324 -0.091837
v -0.998243 0.661324 -0.091831
v -0.998243 0.661324 -0.091831
v -0.228047 0.319352 0.073104
v -0.228047 0.319352 0.073104
v -0.192980 0.887088 -0.264035
v -0.192980 0.887088 -0.264035
v -0.192980 0.922571 -0.264035
v -0.192980 0.922571 -0.264035
v -0.228687 0.198772 -0.444537
v -0.228687 0.198772 -0.444537
v -0.228464 0.319351 -0.263990
v -0.228464 0.319351 -0.263990
v -0.992936 0.661324 -0.104256
v -0.992936 0.661324 -0.104256
v -0.992928 0.661324 -0.097160
v -0.992928 0.661324 -0.097160
v -0.992928 0.661324 -0.097160
v -0.992928 0.661324 -0.097160
v 0.343237 0.376125 0.072397
v 0.343237 0.376125 0.072397
v 0.343237 0.376125 0.072397
v 0.343237 -0.000000 0.072398
v 0.343237 -0.000000 0.072398
v 0.187890 0.230642 -0.400707
v 0.122621 0.230642 -0.427648
v 0.122621 0.230642 -0.427648
v 0.122621 0.230642 -0.427648
v -1.044518 0.371793 0.020347
v -1.062260 0.350503 0.020325
v -1.009100 0.496769 -0.263025
v -1.009100 0.496769 -0.263025
v -1.009100 0.479045 -0.263025
v -1.009100 0.479045 -0.263025
v -1.009100 0.479045 -0.263025
v -1.009100 0.479045 -0.263025
v -1.009100 0.479045 -0.263025
v -1.009100 0.479045 -0.263025
v -1.009100 0.479045 -0.263025
v 0.307546 0.567736 -0.096106
v 0.307546 0.567736 -0.096106
v 0.343029 0.567736 -0.096150
v 0.343029 0.567736 -0.096150
v -0.209889 0.149032 0.410176
v -0.209889 0.149032 0.410176
v -0.227630 0.149032 0.410197
v -0.227630 0.149032 0.410197
v -0.227630 0.149032 0.410197
v -0.227630 0.149032 0.410197
v -0.227630 0.149032 0.410197
v -0.992928 0.673743 -0.097160
v -0.992928 0.673743 -0.097160
v -0.992928 0.673743 -0.097160
v -0.992928 0.673743 -0.097160
v -0.992912 0.661324 -0.084740
v -0.992912 0.661324 -0.084740
v -1.006896 0.479045 -0.263028
v -1.006896 0.479045 -0.263028
v -1.006896 0.479045 -0.263028
v -0.094984 0.532253 0.072939
v -0.094984 0.532253 0.072939
v -0.228047 0.376126 0.073104
v -0.209801 0.149032 0.481142
v -0.209801 0.149032 0.481142
v 0.037663 0.922571 -0.264320
v 0.037663 0.922571 -0.264320
v 0.037663 0.922571 -0.264320
v 0.037663 0.425801 -0.264319
v 0.037663 0.425801 -0.264319
v 0.037663 0.425801 -0.264319
v -1.044518 0.371793 -0.209755
v -1.062261 0.350503 -0.209734
v -0.228837 -0.000001 -0.565598
v -0.228837 0.443543 -0.565600
v -0.228837 0.443543 -0.565600
v 0.272687 0.000001 0.409579
v 0.272687 0.376126 0.409578
v 0.272687 0.376126 0.409578
v -1.008456 0.000001 0.258584
v -0.209801 0.000002 0.481143
v -0.095400 0.532252 -0.264155
v -0.095400 0.532252 -0.264155
v -0.095730 0.532251 -0.530281
v -0.095730 0.532251 -0.530281
v -1.009101 0.319352 -0.263024
v -1.009101 0.319352 -0.263024
v -1.009101 0.319352 -0.263024
v -0.227819 0.149032 0.257618
v -0.227819 0.149032 0.257618
v -1.019665 0.433051 -0.197367
v -1.019665 0.433051 -0.197367
v -1.019665 0.433051 -0.197367
v -1.044518 0.433051 -0.209756
v -1.044518 0.433051 -0.209756
v -1.044518 0.433051 -0.209756
v -0.973637 0.440023 -0.279242
v -0.973637 0.479045 -0.279242
v -0.973637 0.479045 -0.279242
v -1.062326 0.350503 -0.262959
v -1.044584 0.371793 -0.262981
v -1.097810 0.085143 -0.262914
v -1.080068 0.106433 -0.262936
v -0.228463 0.922571 -0.263991
v -0.228463 0.922571 -0.263991
v -0.227819 0.198709 0.257618
v -0.227819 0.198709 0.257618
v 0.037334 0.425801 -0.530445
v 0.037334 0.425801 -0.530445
v -1.009121 0.433051 0.089789
v -1.044518 0.433051 0.020347
v -1.044518 0.433051 0.020347
v -1.044518 0.433051 0.020347
v -1.044518 0.479045 0.020347
v -1.044518 0.479045 0.020347
v -1.019665 0.433051 0.007959
v -1.097744 -0.000017 0.020280
v -1.009100 0.433051 0.073616
v -1.044584 0.479045 0.073573
v -1.044584 0.479045 0.073573
v -0.973617 0.479045 -0.263069
v -0.973617 0.479045 -0.263069
v -0.973617 0.479045 -0.263069
v -0.973617 0.479045 -0.263069
v -0.973617 0.479045 -0.263069
v -0.973617 0.479045 -0.263069
v -0.992921 0.638260 -0.091837
v -0.992921 0.638260 -0.091837
v -0.992921 0.638260 -0.091837
v -0.192954 0.922571 -0.242967
v -0.998243 0.673743 -0.091831
v -0.998243 0.673743 -0.091831
v -0.992921 0.673743 -0.091837
v -0.992921 0.673743 -0.091837
v -0.095773 0.549993 -0.565764
v -0.095773 0.549993 -0.565764
v -0.998235 0.666647 -0.084734
v -0.998235 0.666647 -0.084734
v -0.998243 0.666647 -0.091831
v -0.998243 0.666647 -0.091831
v 0.037290 0.443542 -0.565929
v 0.037290 0.443542 -0.565929
v 0.037334 0.443543 -0.530445
v 0.037334 0.443543 -0.530445
v -0.227630 0.393869 0.410197
v -0.094567 0.549996 0.410032
v -0.094567 0.549996 0.410032
v -0.973617 0.496769 -0.263069
v -0.973617 0.496769 -0.263069
v 0.174221 -0.000001 -0.264486
v 0.174221 -0.000001 -0.264486
v 0.174222 0.230642 -0.264487
v 0.174222 0.230642 -0.264487
v -1.008905 0.629324 -0.105124
v -1.008905 0.629324 -0.105124
v -0.973421 0.629324 -0.105167
v -0.973421 0.629324 -0.105167
v -1.008905 0.638260 -0.105124
v -1.008905 0.638260 -0.105124
v 0.037461 0.230642 -0.427542
v 0.037461 0.230642 -0.427542
v 0.037460 -0.000001 -0.427542
v 0.037662 0.351679 -0.264319
v 0.037662 0.351679 -0.264319
v -0.192563 0.922572 0.073058
v -0.192563 0.922572 0.073058
v 0.002388 1.046763 -0.095730
v 0.002388 1.046763 -0.095730
v 0.002205 0.922571 -0.243208
v 0.038079 0.376126 0.072775
v 0.038079 0.376126 0.072775
v 0.038079 0.376126 0.072775
v 0.038079 0.376126 0.072775
v -0.228793 0.443543 -0.530116
v -0.228793 0.443543 -0.530116
v -0.095730 0.549993 -0.530281
v -0.095730 0.549993 -0.530281
v -1.008879 0.638260 -0.083834
v -1.008879 0.638260 -0.083834
v -0.192563 0.887089 0.073058
v -0.192563 0.887089 0.073058
v 0.038496 0.376126 0.409868
v 0.038496 0.376126 0.409868
v 0.038496 0.376126 0.409868
v 0.038496 0.376126 0.409868
v 0.190912 0.532254 0.277653
v 0.037871 0.542898 -0.095773
v 0.037871 0.542898 -0.095773
v 0.037662 0.376125 -0.264319
v 0.037662 0.376125 -0.264319
v 0.037662 0.376125 -0.264319
v 0.214992 0.230642 -0.335505
v 0.188051 0.230642 -0.270236
v -0.998235 0.661324 -0.084734
v -0.998235 0.661324 -0.084734
v -1.080068 0.246487 0.073528
v -1.062326 0.267777 0.073550
v 0.343029 0.521607 -0.096150
v 0.343029 0.521607 -0.096150
v 0.342821 0.354834 -0.264696
v -1.019665 0.465235 -0.197367
v -1.019665 0.465235 -0.197367
v -1.009013 0.479045 -0.192058
v -1.009013 0.479045 -0.192058
v -1.009013 0.479045 -0.192058
v -1.009121 0.479045 0.089789
v 0.002179 0.922571 -0.264276
v 0.002179 0.922571 -0.264276
v 0.122735 0.299054 -0.335391
v 0.122849 0.230642 -0.243133
v -1.009098 0.479045 -0.260821
v -1.009098 0.479045 -0.260821
v 0.002179 0.887087 -0.264276
v 0.002179 0.887087 -0.264276
v 0.307754 0.376125 0.072441
v 0.343237 0.400964 0.072397
v -1.019680 0.433051 -0.209786
v -1.019680 0.433051 -0.209786
v -1.019680 0.433051 -0.209786
v 0.002596 0.922572 0.072817
v 0.002596 0.922572 0.072817
v -1.080068 0.106433 0.073528
v -1.097810 0.085143 0.073506
v -1.097810 -0.000017 0.073505
v -1.062326 0.350503 0.073550
v -1.009035 0.479028 -0.209800
v -1.019680 0.465235 -0.209786
v 0.307754 0.400964 0.072441
v -1.044518 0.479045 -0.209756
v -1.044518 0.479045 -0.209756
v -1.044584 0.479045 -0.262981
v -1.044584 0.479045 -0.262981
v -0.973637 0.440023 0.089833
v -0.973637 0.479045 0.089833
v -0.973637 0.479045 0.089833
v 0.038054 0.922572 0.051705
v 0.342821 0.400963 -0.264696
v -0.998259 0.666647 -0.104250
v -0.998259 0.666647 -0.104250
v -0.992928 0.666647 -0.097160
v -0.992928 0.666647 -0.097160
v -0.992928 0.666647 -0.097160
v -0.228073 0.922572 0.052034
v -1.019680 0.433051 0.020378
v -1.009100 0.433051 -0.263025
v -1.009100 0.433051 -0.263025
v -1.044584 0.433051 -0.262981
v -1.044584 0.433051 -0.262981
v -1.044584 0.433051 -0.262981
v -1.044584 0.433051 -0.262981
v 0.002570 0.922572 0.051749
v -0.227674 0.393868 0.374713
v 0.343237 0.354835 0.072397
v 0.343237 0.354835 0.072397
v -0.973200 0.496770 0.074025
v -0.973200 0.496770 0.074025
v -0.992936 0.666647 -0.104256
v -0.992936 0.666647 -0.104256
v -0.227675 0.376127 0.374348
v -0.227675 0.376127 0.374348
v -0.227675 0.376127 0.374348
v -0.227675 0.376127 0.374348
v 0.038080 0.922572 0.072773
v 0.038080 0.922572 0.072773
v -0.998251 0.661324 -0.097153
v -0.998251 0.661324 -0.097153
v -0.998251 0.661324 -0.097153
v -1.008684 0.496770 0.074068
v -1.008684 0.496770 0.074068
v -0.228692 -0.000001 -0.448503
v 0.190463 0.532253 -0.085203
v -0.227630 0.376127 0.410197
v -0.227630 0.376127 0.410197
v -0.227630 0.376127 0.410197
v -0.227630 0.376127 0.410197
v -0.227630 0.376127 0.410197
v 0.038496 0.393868 0.409868
v 0.307337 0.400963 -0.264652
v -0.998259 0.661324 -0.104250
v -0.998259 0.661324 -0.104250
v -1.080068 0.246487 -0.262937
v -0.209889 0.000001 0.410176
v 0.037289 -0.001705 -0.565927
v -1.097810 -0.000017 -0.262914
v -1.009013 0.479045 0.002650
v 0.122823 0.351679 -0.264424
v -1.080002 0.246487 -0.209711
v -1.080002 0.106433 -0.209711
v -1.097744 0.085143 -0.209689
v -1.009101 0.000000 -0.263023
v -1.009121 0.479045 -0.279198
v -1.097744 -0.000017 -0.209689
v -1.062326 0.267777 -0.262958
v -1.062261 0.267777 -0.209733
v -1.009121 0.433051 -0.279198
v -1.009100 0.479045 0.073616
v -1.009100 0.479045 0.073616
v -1.009100 0.479045 0.073616
vn 1.0000 0.0000 -0.0011
vn 1.0000 0.0000 -0.0013
vn -0.8248 0.5597 -0.0807
vn -0.8384 0.5389 -0.0820
vn 0.0000 -0.0000 -1.0000
vn -0.8295 0.5525 -0.0812
vn 0.5917 0.0000 -0.8062
vn 1.0000 -0.0000 -0.0012
vn -0.0004 0.9394 -0.3429
vn -0.0004 0.9394 -0.3428
vn -0.0008 0.7649 -0.6441
vn 0.4410 0.8975 -0.0005
vn 0.1088 0.7067 0.6991
vn 0.1429 0.3687 0.9185
vn 0.4097 0.3420 0.8457
vn 0.8355 0.2543 -0.4870
vn 0.9234 -0.0000 -0.3838
vn 0.3815 -0.0000 -0.9244
vn 0.3741 0.1963 -0.9064
vn 0.7062 -0.0000 -0.7080
vn 0.1939 -0.0000 -0.9810
vn 0.0000 1.0000 -0.0000
vn 0.3764 0.1963 0.9054
vn 0.8250 0.2624 0.5005
vn 0.9252 0.0000 0.3795
vn 0.9662 0.2579 -0.0012
vn 0.8832 0.2818 0.3750
vn 0.9243 -0.0000 -0.3817
vn 0.8822 0.2818 -0.3772
vn 0.4644 0.8856 -0.0006
vn 0.2403 0.7799 0.5780
vn 0.4217 0.8033 0.4207
vn -0.0012 -0.0000 -1.0000
vn -0.0011 0.3851 -0.9229
vn -0.0009 0.7108 -0.7034
vn 0.7408 0.0000 0.6718
vn 0.8704 0.3619 0.3338
vn 0.5174 0.4679 0.7165
vn 0.9332 0.0000 0.3594
vn 0.0012 0.0000 1.0000
vn 0.6247 0.7809 -0.0008
vn 0.9785 -0.0000 0.2064
vn 0.2327 -0.0000 -0.9725
vn 0.6674 0.7313 0.1408
vn 0.0000 -1.0000 0.0000
vn -0.3764 0.1963 -0.9054
vn 0.3838 0.0000 0.9234
vn 0.7080 0.0000 0.7062
vn -0.3786 0.6255 0.6822
vn 0.4403 0.6073 0.6613
vn -0.0001 0.2762 0.9611
vn 0.0013 0.0000 1.0000
vn 0.5321 0.7728 0.3459
vn 0.0004 0.9394 0.3428
vn -1.0000 -0.0000 0.0012
vn -0.9403 0.3404 0.0012
vn 0.9384 0.3456 -0.0012
vn -0.0221 0.0201 -0.9996
vn -0.0015 0.0003 -1.0000
vn -0.0226 0.0206 -0.9995
vn -0.0013 -0.0000 -1.0000
vn 0.5956 0.8033 -0.0007
vn 0.4207 0.8032 -0.4217
vn -0.9244 -0.0000 -0.3815
vn -0.9234 0.0000 0.3838
vn -0.9054 0.1963 0.3764
vn -0.9064 0.1963 -0.3741
vn 0.0009 0.7108 0.7034
vn -0.3815 0.0000 0.9244
vn -0.3741 0.1963 0.9064
vn -0.9999 0.0117 0.0006
vn -1.0000 0.0081 0.0008
vn 0.0008 0.7659 0.6430
vn -0.0008 0.7659 -0.6429
vn -0.0008 0.7659 -0.6430
vn 0.9901 -0.0000 0.1405
vn 0.0671 0.1775 -0.9818
vn -0.0012 0.1885 -0.9821
vn 0.0753 -0.0000 -0.9972
vn 0.0008 0.7659 0.6429
vn 0.0009 0.0014 1.0000
vn 0.7151 0.6990 -0.0009
vn 0.7152 0.6989 -0.0009
vn 0.0054 1.0000 -0.0012
vn -0.0007 0.8032 -0.5956
vn 0.2447 0.4603 -0.8534
vn -0.0004 0.0068 1.0000
vn 0.0006 0.0025 1.0000
vn -0.9442 0.3294 0.0012
vn -0.9384 0.3456 0.0012
vn 0.4532 -0.0000 -0.8914
vn 0.7611 0.6487 -0.0009
vn 0.4076 0.3420 -0.8467
vn -0.6247 0.7809 0.0008
vn -0.3838 -0.0000 -0.9234
vn 0.1071 0.7067 -0.6994
vn 0.0008 0.7649 0.6441
vn 0.9366 -0.3503 -0.0010
vn 0.9769 -0.2138 -0.0011
vn 0.7922 -0.6103 -0.0004
vn 0.9465 -0.3228 -0.0011
vn -0.0025 -0.0179 0.9998
vn -0.0114 0.0000 0.9999
vn -0.0077 -0.0075 0.9999
vn 0.0012 -0.0255 0.9997
vn -0.9495 0.3139 0.0012
vn -0.9575 0.2885 0.0007
vn -0.7152 0.6989 0.0009
vn 0.0000 0.0000 1.0000
vn 0.0392 0.9606 -0.2752
vn 0.0009 0.6457 0.7636
vn 0.1537 0.0000 0.9881
vn 0.4553 0.0000 0.8903
vn -0.7611 0.6487 0.0009
vn -0.9392 0.3434 0.0012
vn -1.0000 0.0000 0.0013
vn -0.8397 0.5369 -0.0817
vn -0.8262 0.5576 -0.0804
vn 0.2653 0.0000 0.9642
vn -0.8289 0.5536 -0.0807
vn -1.0000 0.0000 0.0000
vn 0.2388 0.7799 -0.5786
vn 0.0007 0.8370 0.5472
vn -0.9972 0.0054 -0.0743
vn 0.9998 -0.0094 0.0197
vn 1.0000 0.0000 0.0012
vn 1.0000 -0.0031 0.0074
vn 0.9995 -0.0135 0.0276
vn 0.0004 1.0000 -0.0007
vn 0.0005 1.0000 -0.0010
vn 0.0001 1.0000 -0.0001
vn -0.4461 0.0000 -0.8950
vn 0.0013 -0.0000 -1.0000
vn 0.0012 0.0000 -1.0000
vn -0.7912 0.5952 -0.1401
vn -0.0012 -0.0000 1.0000
vn -0.2134 -0.0000 0.9770
vn -0.2834 -0.0000 0.9590
vn 0.9815 -0.1913 -0.0013
vn -0.4159 -0.0000 0.9094
vn -0.0035 0.0013 1.0000
vn -0.0067 0.0037 1.0000
vn -0.0088 0.0018 1.0000
vn -0.0081 0.0027 1.0000
vn -0.0365 0.0279 0.9989
vn -0.0088 0.0012 1.0000
vn -0.0064 0.0008 1.0000
vn -0.0065 0.0003 1.0000
vn -0.0048 0.0016 1.0000
vn -0.0063 -0.0000 1.0000
vn -0.9403 0.3404 -0.0012
vn -0.7918 0.6107 -0.0000
vn -1.0000 0.0000 -0.0012
vn 0.0001 0.9850 0.1725
vn -0.0012 0.0199 -0.9998
vn -0.0007 0.8316 -0.5554
vn -0.0005 0.0071 1.0000
vn -0.4159 -0.0000 -0.9094
vn -0.2834 -0.0000 -0.9590
vn -0.2134 -0.0000 -0.9770
vn -0.4461 0.0000 0.8950
usemtl Default_OBJ
s 1
f 374//1 601//1 376//1
f 601//1 374//1 617//1
f 336//2 361//2 487//2
f 361//2 336//2 344//2
f 344//2 336//2 493//2
f 493//2 336//2 412//2
f 411//3 149//4 377//5
f 414//3 2//6 600//7
f 361//2 346//8 415//8
f 346//8 361//2 344//2
f 489//9 299//10 297//11
f 297//11 269//11 489//9
f 168//12 153//13 10//14
f 10//14 183//15 168//12
f 618//16 155//17 11//18
f 11//18 12//19 618//16
f 385//20 14//20 13//21
f 13//21 386//21 385//20
f 175//22 15//23 631//24
f 16//25 17//26 184//27
f 17//26 16//25 157//28
f 17//26 157//28 18//29
f 490//22 413//22 309//22
f 413//22 490//22 36//22
f 568//30 63//31 512//31
f 512//31 187//32 568//30
f 434//33 494//33 501//33
f 496//22 345//22 499//22
f 345//22 496//22 347//22
f 154//34 637//34 400//35
f 400//35 402//35 154//34
f 24//36 74//37 437//38
f 74//37 24//36 29//39
f 6//40 553//40 416//40
f 553//40 6//40 497//40
f 500//41 26//41 535//41
f 535//41 502//41 500//41
f 380//8 74//37 29//39
f 29//39 383//8 380//8
f 30//42 613//43 382//44
f 385//20 551//8 141//8
f 141//8 14//20 385//20
f 375//45 166//45 638//45
f 166//45 375//45 378//45
f 175//22 12//19 111//46
f 631//24 15//23 33//47
f 33//47 408//48 631//24
f 633//49 438//50 543//51
f 635//40 544//40 46//40
f 635//40 46//40 504//40
f 504//40 46//40 505//40
f 492//52 498//52 4//52
f 498//52 492//52 491//40
f 386//21 13//21 521//33
f 521//33 519//33 386//21
f 74//37 39//53 437//38
f 325//33 442//33 108//33
f 442//33 325//33 464//33
f 442//33 464//33 367//33
f 367//33 464//33 368//33
f 442//33 425//33 428//33
f 425//33 442//33 572//33
f 572//33 442//33 367//33
f 425//33 572//33 567//33
f 139//22 85//54 163//54
f 85//54 139//22 524//22
f 454//55 460//56 431//56
f 460//56 454//55 249//55
f 266//8 636//57 542//8
f 636//57 266//8 102//57
f 611//58 262//59 621//60
f 262//59 611//58 273//33
f 262//59 275//33 264//33
f 275//33 262//59 273//33
f 391//33 417//33 393//33
f 417//33 391//33 482//33
f 482//33 391//33 508//33
f 308//61 599//61 311//61
f 599//61 308//61 5//61
f 31//62 171//63 568//30
f 333//55 574//55 587//55
f 587//55 401//55 333//55
f 401//55 332//55 333//55
f 401//55 65//55 332//55
f 56//64 188//65 62//66
f 62//66 61//67 56//64
f 334//68 57//68 531//68
f 531//68 58//68 334//68
f 62//66 188//65 189//69 192//70
f 657//71 628//72 50//72 399//71
f 501//33 80//33 122//33 434//33
f 315//73 162//73 319//73
f 162//73 315//73 353//73
f 61//67 62//66 175//22
f 320//74 323//74 485//74
f 323//74 320//74 322//75
f 90//76 645//8 569//8
f 154//34 559//77 185//78
f 185//78 637//34 154//34
f 559//77 67//79 509//33
f 509//33 511//33 559//77
f 511//33 104//33 559//77
f 104//33 79//33 559//77
f 79//33 550//34 559//77
f 550//34 185//78 559//77
f 300//80 302//80 627//80
f 627//80 615//80 300//80
f 656//81 327//81 364//81 354//81
f 313//22 616//22 598//22
f 616//22 313//22 71//22
f 72//82 630//83 39//53
f 39//53 74//37 72//82
f 74//37 28//84 72//82
f 192//70 189//69 33//47
f 33//47 15//23 192//70
f 287//33 515//33 94//33
f 94//33 517//33 287//33
f 518//22 537//22 341//22
f 341//22 286//22 518//22
f 341//22 337//22 286//22
f 337//22 486//22 286//22
f 537//22 284//22 359//22
f 359//22 341//22 537//22
f 284//22 486//22 359//22
f 284//22 286//22 486//22
f 78//8 520//8 38//8
f 520//8 548//8 522//8
f 548//8 520//8 429//8
f 429//8 520//8 467//8
f 467//8 520//8 78//8
f 467//8 78//8 642//8
f 467//8 642//8 27//8
f 27//8 642//8 20//8
f 281//40 182//40 440//40 423//40
f 60//8 614//8 316//8
f 614//8 60//8 301//8
f 301//8 60//8 285//8
f 285//8 60//8 83//8
f 83//8 60//8 516//8
f 484//8 516//8 60//8
f 93//8 516//8 484//8
f 539//8 267//8 525//8
f 267//8 539//8 296//8
f 267//8 296//8 268//8
f 268//8 296//8 366//8
f 268//8 366//8 106//8
f 106//8 366//8 369//8
f 388//85 89//85 523//85
f 523//85 64//85 388//85
f 645//8 90//76 387//86
f 144//55 290//55 579//55
f 290//55 144//55 288//55
f 288//55 144//55 526//55
f 288//55 526//55 528//55
f 288//55 528//55 573//55
f 573//55 528//55 566//55
f 330//87 277//88 448//40 466//40
f 147//55 620//89 465//55 449//55
f 365//55 465//55 620//89 138//90
f 507//75 392//75 513//75
f 513//75 75//75 507//75
f 580//22 595//54 610//54
f 595//54 580//22 623//22
f 67//79 559//77 158//91
f 406//40 404//40 142//40 632//40
f 142//40 404//40 641//40 436//40
f 360//45 25//45 362//45
f 25//45 360//45 7//45
f 636//57 274//92 506//92
f 274//92 636//57 102//57
f 175//22 192//70 15//23
f 511//33 510//33 103//33
f 103//33 104//33 511//33
f 175//22 62//66 192//70
f 299//10 88//22 463//22
f 88//22 299//10 489//9
f 107//9 426//22 92//22
f 426//22 107//9 134//9
f 158//91 559//77 132//93
f 304//94 443//94 306//94
f 443//94 304//94 441//94
f 265//92 421//92 263//92
f 421//92 265//92 530//92
f 99//40 358//52 488//52
f 358//52 99//40 363//40
f 11//18 112//95 111//46
f 111//46 12//19 11//18
f 112//95 56//64 61//67
f 61//67 111//46 112//95
f 132//93 559//77 558//96
f 558//96 168//12 132//93
f 534//40 307//40 444//40
f 444//40 536//40 534//40
f 444//40 468//40 503//40
f 503//40 536//40 444//40
f 86//97 8//97 163//54
f 163//54 85//54 86//97
f 561//98 585//99 564//100
f 585//99 561//98 586//101
f 19//47 66//47 140//48
f 140//48 552//48 19//47
f 254//102 59//103 81//104
f 254//102 81//104 69//105
f 116//55 117//55 221//106
f 221//106 452//55 116//55
f 452//55 578//55 116//55
f 560//107 452//55 221//106
f 628//72 303//55 514//55 50//72
f 303//55 77//55 76//55 514//55
f 538//40 119//40 118//40
f 118//40 82//40 538//40
f 370//55 372//55 305//55 109//55
f 370//55 109//55 433//55 97//55
f 109//55 533//55 433//55
f 533//55 435//55 433//55
f 540//97 289//97 295//97
f 289//97 540//97 291//97
f 125//11 42//11 87//11
f 42//11 125//11 124//11
f 495//94 127//94 123//94
f 123//94 128//94 495//94
f 73//108 130//108 529//108
f 529//108 49//108 73//108
f 49//108 541//108 73//108
f 541//108 545//108 73//108
f 168//12 18//29 132//93
f 145//8 135//8 532//8
f 532//8 546//8 145//8
f 546//8 292//8 145//8
f 546//8 294//8 292//8
f 546//8 549//8 294//8
f 549//8 427//8 294//8
f 68//109 430//109 40//110
f 622//40 420//40 129//40
f 420//40 622//40 126//40
f 126//40 622//40 95//40
f 420//40 352//40 422//40
f 352//40 420//40 355//40
f 355//40 420//40 84//40
f 84//40 420//40 126//40
f 355//40 84//40 43//40
f 551//8 552//48 140//48
f 140//48 141//8 551//8
f 17//26 168//12 184//27
f 168//12 17//26 18//29
f 111//46 61//67 175//22
f 39//53 131//111 437//38
f 183//15 384//112 143//113
f 384//112 183//15 10//14
f 293//97 91//97 610//54
f 610//54 595//54 293//97
f 35//114 47//115 148//90
f 47//115 35//114 101//114
f 335//22 339//22 357//22
f 357//22 3//22 335//22
f 47//115 634//55 148//90
f 634//55 47//115 156//55
f 403//8 575//8 381//8
f 381//8 612//8 403//8
f 612//8 557//8 403//8
f 557//8 596//8 403//8
f 557//8 113//8 596//8
f 23//68 22//68 55//68
f 55//68 152//68 23//68
f 619//8 34//8 407//8
f 409//8 155//17 618//16
f 132//93 157//28 158//91
f 157//28 132//93 18//29
f 405//8 424//8 159//8
f 159//8 161//8 405//8
f 321//55 137//55 356//55
f 356//55 602//55 321//55
f 602//55 298//55 321//55
f 298//55 164//55 321//55
f 298//55 9//55 164//55
f 9//55 105//55 164//55
f 597//55 624//55 314//55
f 624//55 597//55 639//55
f 310//116 37//116 167//116
f 37//116 310//116 100//116
f 100//116 310//116 150//116
f 150//116 310//116 342//116
f 340//117 53//118 312//119
f 343//117 54//120 626//121
f 37//116 554//55 21//55
f 554//55 37//116 100//116
f 168//12 183//15 184//27
f 171//63 172//122 568//30
f 173//41 114//41 174//41
f 114//41 173//41 41//41
f 175//22 631//24 618//16
f 175//22 618//16 12//19
f 326//55 331//55 439//55 329//55
f 70//123 169//123 179//123 177//123
f 625//61 338//61 151//61
f 338//61 625//61 379//61
f 278//124 283//124 282//124 276//124
f 16//25 183//15 143//113
f 183//15 16//25 184//27
f 134//9 107//9 527//11
f 527//11 133//11 134//9
f 185//78 550//34 547//35
f 547//35 186//35 185//78
f 31//62 568//30 187//32
f 234//56 647//56 462//56
f 653//56 231//56 646//56
f 459//56 431//56 460//56
f 431//56 459//56 432//56
f 234//56 651//55 648//56
f 651//55 234//56 643//55
f 459//56 653//56 432//56
f 460//56 249//55 607//55
f 647//56 234//56 648//56
f 607//55 249//55 590//55
f 231//56 653//56 652//56
f 653//56 459//56 652//56
f 646//56 462//56 647//56
f 462//56 646//56 231//56
f 620//89 48//114 138//90
f 138//90 48//114 136//114
f 165//33 1//33 32//33
f 1//33 165//33 193//33
f 593//125 592//126 258//127
f 593//125 258//127 317//128
f 594//129 318//130 257//131
f 594//129 257//131 655//22
f 655//22 565//22 594//129
f 255//22 644//22 196//22
f 655//22 255//22 196//22
f 565//22 655//22 196//22
f 196//22 479//22 565//22
f 477//45 211//45 350//45
f 473//132 256//132 201//132
f 470//132 473//132 201//132
f 201//132 475//132 470//132
f 197//45 203//45 472//45
f 603//133 389//134 471//134
f 389//134 279//134 390//134
f 603//133 279//134 389//134
f 279//134 260//134 280//134
f 603//133 260//134 279//134
f 204//135 260//134 603//133
f 206//134 260//134 204//135
f 206//134 261//134 260//134
f 261//134 206//134 216//134
f 259//136 208//136 194//137
f 194//137 209//138 259//136
f 570//139 585//99 398//139
f 209//138 194//137 478//140
f 469//140 209//138 478//140
f 478//140 351//140 469//140
f 195//141 349//136 348//142
f 328//143 195//141 348//142
f 328//143 348//142 584//144
f 328//143 584//144 217//145
f 328//143 217//145 214//146
f 328//143 214//146 581//147
f 178//148 328//143 581//147
f 178//148 581//147 582//149
f 582//149 215//150 178//148
f 219//151 555//151 225//151
f 225//151 205//151 219//151
f 218//52 220//52 577//52
f 223//151 556//151 213//151
f 576//8 561//98 451//8
f 561//98 576//8 586//101
f 560//107 221//106 204//135
f 204//135 562//152 560//107
f 555//151 556//151 223//151
f 228//153 212//153 474//153
f 205//151 207//151 224//151
f 395//40 609//40 229//40
f 226//151 228//153 474//153
f 213//151 222//151 223//151
f 476//153 583//153 224//151
f 224//151 207//151 476//153
f 230//151 222//151 213//151
f 570//139 564//100 585//99
f 213//151 226//151 230//151
f 223//151 225//151 555//151
f 224//151 219//151 205//151
f 395//40 229//40 480//40
f 481//154 419//154 52//154
f 418//45 571//45 394//45
f 226//151 474//153 202//153
f 202//153 230//151 226//151
f 270//155 271//155 371//155 629//155
f 272//55 96//55 235//55 445//55
f 373//156 120//156 98//156 446//156
f 397//33 324//33 121//33 210//33
f 160//22 146//22 410//22 181//22
f 181//22 410//22 170//22 110//22
f 277//88 330//87 176//157 180//157
f 461//33 649//33 199//33
f 649//33 461//33 236//33
f 649//33 236//33 447//33
f 447//33 236//33 640//33
f 447//33 640//33 233//33
f 447//33 233//33 237//33
f 447//33 237//33 238//33
f 447//33 238//33 604//33
f 604//33 238//33 606//33
f 591//158 654//158 608//158
f 654//158 591//158 240//159
f 240//159 591//158 650//160
f 650//160 456//33 240//159
f 456//33 650//160 457//33
f 244//40 198//40 200//40
f 200//40 190//40 244//40
f 200//40 218//52 190//40
f 218//52 577//52 190//40
f 577//52 232//40 190//40
f 232//40 246//40 190//40
f 577//52 44//40 232//40
f 44//40 191//40 232//40
f 577//52 455//40 44//40
f 450//45 453//45 245//45
f 115//161 248//161 247//161
f 248//161 115//161 589//161
f 589//161 115//161 563//161
f 605//45 239//45 250//45
f 588//22 241//22 45//22
f 241//22 588//22 396//22
f 396//22 588//22 227//22
f 227//22 588//22 251//22
f 396//22 458//22 241//22
f 458//22 396//22 51//22
f 458//22 51//22 483//22
f 243//8 252//8 253//8
f 243//8 253//8 242//8
